<svg xmlns="http://www.w3.org/2000/svg" viewBox="0 0 220 36" role="img" aria-label="MrWhale Codex W">
  <defs>
    <linearGradient id="mw-g" x1="4" y1="4" x2="32" y2="32" gradientUnits="userSpaceOnUse">
      <stop stop-color="#1d4ed8"/>
      <stop offset="1" stop-color="#0284c7"/>
    </linearGradient>
  </defs>
  <rect x="2" y="2" width="32" height="32" rx="9" fill="url(#mw-g)"/>
  <path fill="#fff" d="M8 18c1.4-4.2 5-7 9.2-7 2.8 0 5.2 1.2 6.8 3.2l-1.6 1.4c-1.2-1.5-3-2.4-5.2-2.4-3.2 0-5.8 2-6.8 4.8l-2.4-.4zm12.8-.8c.8 0 1.4.6 1.4 1.4s-.6 1.4-1.4 1.4-1.4-.6-1.4-1.4.6-1.4 1.4-1.4zm-5.6 0c.8 0 1.4.6 1.4 1.4s-.6 1.4-1.4 1.4-1.4-.6-1.4-1.4.6-1.4 1.4-1.4z"/>
  <path fill="#fff" fill-opacity=".9" d="M26 12c2.4.8 4.2 2.8 4.6 5.6-3.2-.6-5.8-2.6-7-5.4.8-.7 1.8-1 2.4-.2z"/>
  <text x="44" y="24" font-family="DM Sans, PingFang SC, Microsoft YaHei, sans-serif" font-size="17" font-weight="700" fill="#0f172a">MrWhale</text>
  <text x="118" y="24" font-family="DM Sans, PingFang SC, Microsoft YaHei, sans-serif" font-size="15" font-weight="600" fill="#475569">Codex W</text>
</svg>
