<svg width="1280" height="720" viewBox="0 0 1280 720" fill="none" xmlns="http://www.w3.org/2000/svg" role="img" aria-labelledby="title desc">
  <title id="title">Codex 高质量任务闭环</title>
  <desc id="desc">把一次任务拆成可观察、可验证、可复盘的工程循环。</desc>
  <rect width="1280" height="720" rx="4" fill="#F6F7F9"/>
  <rect x="48" y="48" width="1184" height="624" rx="4" fill="#FFFFFF" stroke="#D8DEE8" stroke-width="1.5"/>
  <text x="88" y="108" fill="#0C1222" font-family="'Source Serif 4', 'Noto Serif SC', Georgia, serif" font-size="36" font-weight="600">Codex 高质量任务闭环</text>
  <text x="88" y="148" fill="#3D4F66" font-family="'Source Sans 3', 'PingFang SC', sans-serif" font-size="20">把一次任务拆成可观察、可验证、可复盘的工程循环。</text>
  <g font-family="'Source Sans 3', 'PingFang SC', sans-serif">
    <circle cx="260" cy="360" r="88" fill="#FFFFFF" stroke="#0F766E" stroke-width="2"/>
    <text x="228" y="352" fill="#0C1222" font-size="22" font-weight="700">说明</text>
    <text x="200" y="382" fill="#3D4F66" font-size="16">目标 / 范围 / 约束</text>
    <circle cx="520" cy="248" r="88" fill="#FFFFFF" stroke="#1A365D" stroke-width="2"/>
    <text x="488" y="240" fill="#0C1222" font-size="22" font-weight="700">探索</text>
    <text x="460" y="270" fill="#3D4F66" font-size="16">读仓库 / 找入口</text>
    <circle cx="800" cy="248" r="88" fill="#FFFFFF" stroke="#5B4B8A" stroke-width="2"/>
    <text x="768" y="240" fill="#0C1222" font-size="22" font-weight="700">实施</text>
    <text x="744" y="270" fill="#3D4F66" font-size="16">小步修改 / 控制 diff</text>
    <circle cx="1020" cy="360" r="88" fill="#FFFFFF" stroke="#B45309" stroke-width="2"/>
    <text x="988" y="352" fill="#0C1222" font-size="22" font-weight="700">验证</text>
    <text x="960" y="382" fill="#3D4F66" font-size="16">测试 / 运行 / 检查</text>
    <circle cx="640" cy="512" r="88" fill="#FFFFFF" stroke="#6B7C93" stroke-width="2"/>
    <text x="608" y="504" fill="#0C1222" font-size="22" font-weight="700">复盘</text>
    <text x="580" y="534" fill="#3D4F66" font-size="16">原因 / 改动 / 风险</text>
  </g>
  <path d="M348 340 L420 280" stroke="#94A3B8" stroke-width="2.5" stroke-linecap="round" fill="none"/>
  <path d="M608 248 L712 248" stroke="#94A3B8" stroke-width="2.5" stroke-linecap="round"/>
  <path d="M888 270 L960 330" stroke="#94A3B8" stroke-width="2.5" stroke-linecap="round" fill="none"/>
  <path d="M960 410 L720 500" stroke="#94A3B8" stroke-width="2.5" stroke-linecap="round" fill="none"/>
  <path d="M560 510 L320 420" stroke="#94A3B8" stroke-width="2.5" stroke-linecap="round" fill="none"/>
</svg>
